<?xml version="1.0" encoding="iso-8859-1"?>
<!-- Uploaded to: SVG Repo, www.svgrepo.com, Generator: SVG Repo Mixer Tools -->
<svg height="800px" width="800px" version="1.1" id="Capa_1" xmlns="http://www.w3.org/2000/svg" xmlns:xlink="http://www.w3.org/1999/xlink" 
	 viewBox="0 0 30.265 30.265" xml:space="preserve">
<g>
	<g>
		<path style="fill:#010002;" d="M12.473,19.978c0-2.979,2.497-5.518,5.99-6.5V5.18c0-0.511-0.413-0.923-0.922-0.923L1.818,4.248
			c0-0.633,0.953-0.955,0.953-0.955h15.691c0.982,0,0.952,0.865,0.952,0.865v9.093c0.473-0.091,0.956-0.156,1.454-0.188V2.677
			c0.001-0.691-0.864-0.866-0.864-0.866H2.597C0.002,1.811,0,4.215,0,4.215v22.156c0,0.509,0.412,0.923,0.925,0.923h14.104
			c0.087-0.192,0.212-0.373,0.378-0.522c0.498-0.454,0.799-0.82,0.98-1.097C13.949,24.398,12.473,22.28,12.473,19.978z M4.538,7.686
			h9.529v1.803H4.538V7.686z"/>
		<path style="fill:#010002;" d="M22.093,13.957c-4.505,0-8.172,2.657-8.172,5.924c0,2.175,1.594,4.129,4.186,5.171
			c-0.044,0.451-0.34,1.248-1.589,2.383c-0.2,0.182-0.249,0.479-0.119,0.715c0.106,0.191,0.304,0.305,0.514,0.305
			c0.052,0,0.104-0.008,0.154-0.021c0.15-0.04,3.594-0.99,5.763-2.657c1.958-0.127,3.779-0.754,5.146-1.777
			c1.476-1.105,2.289-2.567,2.289-4.118C30.264,16.615,26.599,13.957,22.093,13.957z M22.583,24.616
			c-0.125,0.006-0.243,0.05-0.34,0.13c-0.991,0.799-2.368,1.439-3.495,1.879c0.541-0.888,0.595-1.595,0.5-2.094
			c-0.038-0.203-0.183-0.372-0.38-0.441c-2.326-0.831-3.774-2.443-3.774-4.208c0-2.62,3.141-4.751,6.999-4.751
			s6.997,2.131,6.997,4.751C29.09,22.362,26.23,24.439,22.583,24.616z"/>
	</g>
</g>
</svg>